<?xml version="1.0" encoding="UTF-8" standalone="no"?>
<!-- Created with Inkscape (http://www.inkscape.org/) -->

<svg
   xmlns:dc="http://purl.org/dc/elements/1.1/"
   xmlns:cc="http://creativecommons.org/ns#"
   xmlns:rdf="http://www.w3.org/1999/02/22-rdf-syntax-ns#"
   xmlns:svg="http://www.w3.org/2000/svg"
   xmlns="http://www.w3.org/2000/svg"
   xmlns:sodipodi="http://sodipodi.sourceforge.net/DTD/sodipodi-0.dtd"
   xmlns:inkscape="http://www.inkscape.org/namespaces/inkscape"
   width="124.39646mm"
   height="99.084015mm"
   viewBox="0 0 124.39646 99.084015"
   version="1.1"
   id="svg8"
   inkscape:version="0.92.2 5c3e80d, 2017-08-06"
   sodipodi:docname="notenBlume.svg">
  <defs
     id="defs2" />
  <sodipodi:namedview
     id="base"
     pagecolor="#ffffff"
     bordercolor="#666666"
     borderopacity="1.0"
     inkscape:pageopacity="0.0"
     inkscape:pageshadow="2"
     inkscape:zoom="1"
     inkscape:cx="163.04504"
     inkscape:cy="245.80268"
     inkscape:document-units="mm"
     inkscape:current-layer="layer1"
     showgrid="false"
     fit-margin-top="0"
     fit-margin-left="0"
     fit-margin-right="0"
     fit-margin-bottom="0"
     inkscape:window-width="1280"
     inkscape:window-height="755"
     inkscape:window-x="0"
     inkscape:window-y="1"
     inkscape:window-maximized="1" />
  <metadata
     id="metadata5">
    <rdf:RDF>
      <cc:Work
         rdf:about="">
        <dc:format>image/svg+xml</dc:format>
        <dc:type
           rdf:resource="http://purl.org/dc/dcmitype/StillImage" />
        <dc:title></dc:title>
      </cc:Work>
    </rdf:RDF>
  </metadata>
  <g
     inkscape:label="Ebene 1"
     inkscape:groupmode="layer"
     id="layer1"
     transform="translate(-0.48109395,-3.7937777)">
    <path
       style="fill:#000000;stroke-width:1"
       d="m 17.006594,102.19176 c 0.01062,-0.40018 0.132609,-1.38245 0.271079,-2.18281 0.13847,-0.800366 0.357232,-8.241766 0.486136,-16.536456 0.22205,-14.28835 0.320075,-16.26854 1.342514,-27.1198 0.14397,-1.52796 0.261863,-4.54293 0.261984,-6.69993 l 2.21e-4,-3.92181 -0.697139,0.54837 c -0.751788,0.59136 -2.805262,0.75616 -3.536194,0.28379 -0.282463,-0.18254 0.02899,-0.25765 1.080382,-0.26053 0.812491,-0.002 1.542131,-0.0689 1.621421,-0.14822 0.07929,-0.0793 -0.215487,-0.50381 -0.65506,-0.94338 -0.78399,-0.78399 -0.824981,-0.79341 -2.150587,-0.4942 -0.74325,0.16777 -1.546167,0.35789 -1.784259,0.42249 -0.238092,0.0646 -0.803639,-0.1945 -1.256771,-0.57578 -0.97689,-0.822 -1.162002,-2.19483 -0.325447,-2.41359 0.337631,-0.0883 0.455711,-0.2937 0.366016,-0.63669 -0.07283,-0.27849 -0.223702,-0.50635 -0.335278,-0.50635 -0.111576,0 -0.288904,-0.26789 -0.394062,-0.59531 -0.205227,-0.639 -0.240366,-0.55821 -0.532816,1.22509 -0.18879,1.1512 -0.446684,1.03034 -0.9125462,-0.42766 -0.173717,-0.54367 -0.428337,-1.05802 -0.565822,-1.14299 -0.137486,-0.085 -0.71148,0.21103 -1.275543,0.65777 -1.503543,1.19083 -3.164024,0.94176 -2.878652,-0.43179 0.119327,-0.57435 1.148928,-0.53301 1.818577,0.073 0.403923,0.36554 0.516968,0.34379 1.180783,-0.2272 l 0.734095,-0.63144 -1.752183,-1.25033 -1.752183,-1.25033 -0.997285,0.67767 c -1.19698,0.81337 -1.952051,0.85811 -2.589747,0.15347 -0.388229,-0.42899 -0.413822,-0.5972 -0.140902,-0.92604 0.444235,-0.53527 0.858036,-0.5065 1.647585,0.11456 0.603635,0.47482 0.703933,0.48317 1.245623,0.10376 l 0.589126,-0.41264 -0.530858,-0.56678 c -0.507029,-0.54134 -1.095274,-1.77866 -1.095274,-2.3038 0,-0.52839 0.480516,-0.20982 0.782238,0.5186 0.501883,1.21165 1.311329,1.96384 1.734973,1.61225 0.291082,-0.24158 0.241479,-0.46163 -0.275937,-1.22408 -0.346947,-0.51126 -0.703533,-1.15868 -0.792415,-1.43872 -0.180304,-0.56809 -0.344127,-0.61407 -0.910818,-0.25566 -0.88125,0.55736 -1.502926,-1.15001 -0.670332,-1.841 0.218281,-0.18116 0.396875,-0.41789 0.396875,-0.52608 0,-0.10819 -0.765385,-1.13401 -1.700856,-2.2796 -1.55976701,-1.91011 -1.99983301,-2.6902 -1.14980901,-2.03824 0.48336801,0.37075 3.31914101,0.94391 3.65205901,0.73815 0.154115,-0.0952 0.561107,0.0109 0.904427,0.23583 l 0.624217,0.409 -0.377481,-0.75668 c -0.293885,-0.5891 -0.507939,-0.72415 -0.966581,-0.60981 l -0.589101,0.14686 0.618499,-0.51196 c 0.433289,-0.35867 0.591748,-0.72746 0.529167,-1.23157 l -0.08933,-0.7196 -1.190625,0.79259 c -1.267677,0.84389 -2.077331,0.99295 -2.592917,0.47736 -0.44122701,-0.44123 -0.3969,-1.18292 0.08167,-1.36656 0.479771,-0.18411 1.624225,0.21363 1.756494,0.61044 0.05359,0.16078 0.529482,-0.026 1.099433,-0.43154 l 1.004936,-0.71502 -0.740955,-0.39692 -0.740956,-0.39692 1.058334,-0.19077 c 0.582083,-0.10492 1.393506,-0.31973 1.803162,-0.47736 0.409655,-0.15763 1.025273,-0.2866 1.368039,-0.2866 0.481744,0 0.66409,-0.18611 0.803292,-0.8199 0.194235,-0.88434 -0.335239,-1.7977 -0.607069,-1.04722 -0.518141,1.43052 -2.468672,2.06648 -3.350265,1.09233 -0.98828,-1.09204 0.67331,-2.5403 2.237221,-1.94999 0.646772,0.24413 0.766735,0.2045 1.012285,-0.33442 0.257179,-0.56445 0.189498,-0.64539 -0.881734,-1.0545 -1.250514,-0.47757 -1.648055,-1.02811 -1.163767,-1.61164 0.394254,-0.47505 1.118176,0.0595 0.950248,0.70163 -0.07703,0.29457 0.137148,0.53215 0.656432,0.72815 0.701822,0.26491 0.793049,0.23233 1.01987,-0.36425 0.677295,-1.78142 0.656846,-1.83854 -0.852473,-2.3811 -1.187799,-0.42699 -1.407741,-0.6089 -1.407741,-1.16434 0,-0.89842 0.768836,-0.87279 0.873592,0.0291 0.06192,0.53309 0.298,0.75437 1.051627,0.98566 0.534481,0.16404 1.049464,0.21189 1.144406,0.10634 0.09494,-0.10556 0.375418,-0.817 0.6232822,-1.58098 0.46757,-1.44118 1.101971,-1.95233 0.820945,-0.66146 -0.137262,0.63051 0.545585,3.2294 0.956468,3.64029 0.07311,0.0731 0.468701,-0.70117 0.879097,-1.72061 0.410395,-1.01944 0.876071,-1.8478 1.034836,-1.8408 0.158765,0.007 1.479288,0.28895 2.934497,0.62656 1.669481,0.38731 2.619396,0.73042 2.574189,0.9298 -0.0394,0.17379 0.496378,-0.0784 1.190625,-0.56041 l 1.262269,-0.87639 -2.774846,-0.0761 c -1.526165,-0.0419 -2.889431,-0.19068 -3.029479,-0.33073 -0.163122,-0.16312 -0.111074,-0.25463 0.144826,-0.25463 0.219703,0 1.021782,-0.53121 1.782397,-1.18046 0.798258,-0.68138 1.775537,-1.2541 2.311554,-1.35466 1.193916,-0.22398 3.75294,-0.0135 4.103974,0.3375 0.18474,0.18474 -0.140833,0.23129 -1.024083,0.14642 -1.240989,-0.11924 -1.330071,-0.0819 -2.13847,0.89724 l -0.843539,1.02167 0.99306,0.16666 c 0.790987,0.13276 1.182586,0.0373 1.924459,-0.46893 l 0.931397,-0.6356 0.08081,0.63723 c 0.05937,0.46814 0.290655,0.6792 0.871611,0.79539 0.585177,0.11704 0.891874,0.40006 1.17951,1.08847 0.400471,0.95846 0.739426,1.15703 1.067874,0.6256 0.103579,-0.1676 -0.0085,-0.44862 -0.248967,-0.62449 -0.663996,-0.48552 -0.526175,-0.66284 0.375086,-0.48259 0.704557,0.14091 0.967944,0.01 1.984375,-0.98774 1.254054,-1.23076 1.649683,-1.17073 0.461031,0.07 l -0.710959,0.74208 h 0.966335 c 0.703591,0 1.220632,0.22327 1.901584,0.82116 0.514388,0.45164 0.93525,0.94022 0.93525,1.08574 0,0.14552 -0.420862,-0.10494 -0.93525,-0.55657 -1.008464,-0.88545 -1.849482,-1.03258 -2.631926,-0.46044 -0.473306,0.34609 -0.46731,0.37699 0.147867,0.76194 0.352653,0.22067 1.355559,0.84752 2.228684,1.39301 0.873125,0.54548 1.682713,1.15511 1.799084,1.35472 0.116372,0.19962 0.358847,0.36294 0.538838,0.36294 0.295251,0 0.736779,0.52271 3.144792,3.72298 l 0.720214,0.95717 -1.972992,1.00145 c -2.153645,1.09313 -3.160488,1.93632 -1.980978,1.65898 0.363802,-0.0855 1.733021,-0.23055 3.042708,-0.32224 2.197873,-0.15388 2.340499,-0.13465 1.852084,0.24975 -0.291042,0.22905 -1.209781,1.06474 -2.041639,1.85707 -1.490522,1.4197 -1.504278,1.44635 -0.947796,1.83613 0.507341,0.35535 0.599133,0.34953 0.903999,-0.0574 0.292275,-0.39009 0.33672,-0.2878 0.320554,0.73774 -0.01032,0.65484 0.07008,1.97741 0.178665,2.93904 l 0.197432,1.74841 -0.990042,1.09586 c -0.54452,0.60272 -1.117523,1.09586 -1.273336,1.09586 -0.155813,0 0.02209,-0.32742 0.395332,-0.72761 1.366372,-1.46497 1.631344,-2.73931 0.786522,-3.78262 l -0.485934,-0.6001 -0.881081,1.53996 c -0.484592,0.84698 -0.881078,1.87775 -0.881078,2.29059 0,0.41283 -0.09922,0.75061 -0.220488,0.75061 -0.121267,0 -0.220485,0.3567 -0.220485,0.79267 v 0.79267 l 1.373293,-0.52181 c 1.596766,-0.60672 1.934821,-0.48752 0.956395,0.33724 -0.380786,0.32098 -0.837552,0.88126 -1.015035,1.24506 -0.293518,0.60166 -0.241519,0.58441 0.575146,-0.19084 l 0.897843,-0.85229 -0.101023,2.04292 c -0.05556,1.12361 -0.257784,2.34058 -0.449379,2.70438 -0.495422,0.9407 -2.61846,3.175 -3.016893,3.175 -0.184052,0 0.04261,-0.35241 0.503692,-0.78312 0.702252,-0.656 0.824905,-0.94556 0.755587,-1.78374 -0.124296,-1.50296 -0.750113,-1.42593 -2.434863,0.2997 -1.095012,1.12158 -1.622504,1.47341 -2.209056,1.47341 -0.807784,0 -1.915446,-0.92172 -1.928241,-1.60455 -0.0081,-0.43322 -1.562312,1.31307 -1.573266,1.76771 -0.0039,0.1625 0.617961,0.57373 1.381945,0.91383 l 1.389063,0.61838 -1.058333,0.0808 c -0.582084,0.0445 -1.751664,0.26691 -2.599069,0.49436 -1.638726,0.43984 -2.706473,0.27475 -3.630328,-0.56133 -0.41245,-0.37326 -0.453337,-0.0135 -0.59427,5.22883 -0.08324,3.09631 -0.414705,8.01091 -0.736589,10.92133 -0.525165,4.74845 -0.579438,6.45958 -0.528692,16.66875 0.0311,6.25739 -0.02621,14.07523 -0.127355,17.37298 l -0.183907,5.995886 -1.100407,0.42026 c -1.443763,0.55137 -1.482854,0.54314 -1.460276,-0.30736 z m 7.95502,-56.680556 0.624623,-0.52274 -1.322917,0.14834 c -1.718051,0.19265 -2.053426,0.30678 -1.85324,0.63069 0.281813,0.45598 1.893928,0.29406 2.551534,-0.25629 z m -0.881116,-0.79726 c 0.33601,-0.002 0.546225,-0.1076 0.467143,-0.23556 -0.297526,-0.48141 -1.188529,-0.48025 -2.1746,0.003 l -1.020138,0.49976 1.058334,-0.13205 c 0.582083,-0.0726 1.333251,-0.13336 1.669261,-0.13496 z m -8.813011,-0.53208 c 0.422868,-0.18171 0.440502,-0.23113 0.08779,-0.24598 -0.242759,-0.0102 -0.629713,-0.0909 -0.859896,-0.1792 -0.274633,-0.10539 -0.418514,-0.0144 -0.418514,0.26458 0,0.46367 0.369391,0.5135 1.190625,0.1606 z m 3.996311,-0.45751 c -0.268954,-0.26895 -0.490868,0.13597 -0.270198,0.49302 0.166697,0.26972 0.229018,0.26993 0.318638,10e-4 0.06128,-0.18383 0.03948,-0.40617 -0.04844,-0.49409 z m 2.679063,0.0106 c 0.05162,-0.15488 -0.08976,-0.35206 -0.314192,-0.43818 -0.285986,-0.10975 -0.408057,0.006 -0.408057,0.38632 0,0.54434 0.545044,0.58348 0.722249,0.0519 z m 2.717334,-0.0822 c 0,-0.14552 -0.12609,-0.26458 -0.280199,-0.26458 -0.154109,0 -0.206613,0.11906 -0.116676,0.26458 0.08994,0.14552 0.216027,0.26458 0.280199,0.26458 0.06417,0 0.116676,-0.11906 0.116676,-0.26458 z m -5.710181,-0.42518 c 0.575038,-0.22066 0.524685,-0.54367 -0.110652,-0.70982 -0.291042,-0.0761 -0.529167,-0.0305 -0.529167,0.10144 0,0.1319 -0.119062,0.23981 -0.264583,0.23981 -0.145521,0 -0.234818,-0.10716 -0.198438,-0.23812 0.09585,-0.34506 -0.119358,-0.39379 -0.79375,-0.17975 -0.779658,0.24746 -0.777653,0.78558 0.0022,0.58986 0.328631,-0.0825 0.775115,-0.0377 0.992188,0.0996 0.4759,0.30087 0.393952,0.29206 0.902204,0.097 z m 8.014607,-1.2098 c -0.368044,-0.22746 -0.337551,-0.26647 -0.55421,0.70894 l -0.17631,0.79375 0.517623,-0.65718 c 0.365601,-0.46417 0.428127,-0.71249 0.212897,-0.84551 z m -11.946142,0.42975 c 0.496126,-0.39748 0.493939,-0.40197 -0.06433,-0.13229 -0.889217,0.42956 -1.079125,0.32089 -0.379442,-0.21713 0.451747,-0.34737 0.564102,-0.59909 0.396875,-0.88917 -0.207264,-0.35952 -0.327656,-0.35358 -1.08012,0.0533 -0.797664,0.43132 -0.823688,0.491 -0.448017,1.02734 0.473072,0.67541 0.878415,0.71606 1.575032,0.15795 z m 16.779558,-0.8677 c -0.733806,-0.1112 -1.122651,0.25914 -0.894993,0.85241 0.158097,0.41199 0.237046,0.39727 0.827032,-0.15419 l 0.652251,-0.60967 z m -12.694092,0.0885 c 0,-0.21828 -0.04679,-0.39687 -0.103984,-0.39687 -0.05719,0 -0.172517,0.17859 -0.25628,0.39687 -0.08376,0.21828 -0.03697,0.39688 0.103985,0.39688 0.140953,0 0.256279,-0.1786 0.256279,-0.39688 z m 16.650152,-1.52135 c 0.01023,-0.5457 -0.100464,-0.99219 -0.245985,-0.99219 -0.147868,0 -0.256382,0.67111 -0.245986,1.52136 0.01339,1.09457 0.08238,1.37291 0.245986,0.99218 0.125066,-0.29104 0.235759,-0.97565 0.245985,-1.52135 z m -16.914735,0.52269 c 0,-0.53349 -0.667169,0.0313 -0.735383,0.62251 -0.07159,0.62049 -0.06114,0.6245 0.330729,0.12715 0.22256,-0.28248 0.404654,-0.61982 0.404654,-0.74966 z m -3.028461,-0.16891 c -0.09777,-0.1582 -0.353525,-0.28764 -0.568338,-0.28764 -0.315214,0 -0.332996,0.10758 -0.09217,0.55757 0.20288,0.37909 0.384814,0.47117 0.568339,0.28764 0.148464,-0.14846 0.189938,-0.39937 0.09217,-0.55757 z m 13.611794,0.50611 c 0,-0.14552 -0.231098,-0.26458 -0.513551,-0.26458 -0.282453,0 -0.587137,0.11906 -0.677074,0.26458 -0.09274,0.15006 0.129545,0.26458 0.513551,0.26458 0.37239,0 0.677074,-0.11906 0.677074,-0.26458 z m 4.099168,-0.52614 c 0.09269,-0.14998 -0.01352,-0.19433 -0.248967,-0.10398 -0.45837,0.17589 -0.542235,0.36554 -0.16165,0.36554 0.136932,0 0.321712,-0.1177 0.410617,-0.26156 z m -23.255001,-0.69094 c -0.09416,-0.24539 -0.230737,-0.38663 -0.3034982,-0.31387 -0.07276,0.0728 -0.05525,0.33307 0.03891,0.57845 0.09416,0.24539 0.230737,0.38663 0.303498,0.31387 0.07276,-0.0728 0.05525,-0.33307 -0.03891,-0.57845 z m 23.08429,-0.18958 c 0.225515,-0.27172 0.236225,-0.55322 0.0383,-1.00663 -0.264893,-0.60682 -0.26961,-0.60329 -0.131342,0.0982 0.17956,0.91097 -0.278214,0.96766 -0.50537,0.0626 -0.142406,-0.56739 -0.272849,-0.64005 -0.888579,-0.49501 -0.39692,0.0935 -0.824407,0.26333 -0.949973,0.37738 -0.306946,0.2788 0.03046,0.78264 0.524113,0.78264 0.223816,0 0.3176,0.12827 0.215072,0.29417 -0.09999,0.16179 -0.02413,0.39161 0.168566,0.5107 0.382251,0.23625 1.036992,-0.0309 1.529215,-0.62403 z m -7.786995,0.17817 c 0.252077,-0.6569 -0.02577,-0.7466 -0.362667,-0.11709 -0.162533,0.3037 -0.184901,0.55183 -0.04974,0.55183 0.13507,0 0.320656,-0.19563 0.412411,-0.43474 z m 2.800205,0.21426 c 0,-0.34451 -0.314529,-0.57363 -0.570386,-0.4155 -0.273638,0.16912 -0.03769,0.63598 0.321418,0.63598 0.136933,0 0.248968,-0.0992 0.248968,-0.22048 z M 12.35707,39.419364 c -0.08994,-0.14552 -0.305323,-0.26276 -0.478636,-0.26053 -0.18934,0.002 -0.156706,0.10642 0.08176,0.26053 0.508297,0.32849 0.599891,0.32849 0.396876,0 z m -1.274468,-0.57878 c -0.08446,-0.21106 -0.147157,-0.14837 -0.159852,0.15986 -0.01149,0.27891 0.05104,0.43518 0.138964,0.34726 0.08792,-0.0879 0.09732,-0.31612 0.02089,-0.50712 z m -1.8707922,-0.60359 c -0.400217,-0.61081 -1.220365,-0.93421 -1.220365,-0.48121 0,0.24182 1.421884,1.38434 1.557194,1.25125 0.05609,-0.0552 -0.09548,-0.40169 -0.336829,-0.77004 z m 4.1669822,0.25633 c -0.159137,-0.41471 -0.88943,-0.55953 -0.88943,-0.17639 0,0.32324 0.304098,0.57326 0.697251,0.57326 0.197497,0 0.279494,-0.16933 0.192179,-0.39687 z m 16.199584,-0.85856 c -0.289031,-0.28903 -0.487225,0.17062 -0.279712,0.64871 0.196765,0.45333 0.211029,0.45292 0.320659,-0.009 0.0631,-0.26605 0.04468,-0.55379 -0.04095,-0.63941 z m 1.917205,-0.10014 c -0.514167,-0.32593 -0.749969,-0.28185 -0.749969,0.14018 0,0.24687 0.185618,0.32356 0.551532,0.22787 0.419327,-0.10965 0.466894,-0.19788 0.198437,-0.36805 z M 9.8382218,37.164014 c -0.184076,-0.2218 -0.403566,-0.33439 -0.487755,-0.2502 -0.08419,0.0842 0.02207,0.26384 0.23614,0.39922 0.5601162,0.35423 0.6333012,0.31088 0.251615,-0.14902 z m -3.037402,-0.91965 c 0.08994,-0.14552 0.04446,-0.26458 -0.101062,-0.26458 -0.145521,0 -0.338168,0.11906 -0.428105,0.26458 -0.08994,0.14552 -0.04446,0.26458 0.101062,0.26458 0.145521,0 0.338168,-0.11906 0.428105,-0.26458 z m 5.1593752,-0.26458 c 0,-0.14552 -0.119062,-0.26459 -0.264583,-0.26459 -0.145521,0 -0.264584,0.11907 -0.264584,0.26459 0,0.14552 0.119063,0.26458 0.264584,0.26458 0.145521,0 0.264583,-0.11906 0.264583,-0.26458 z m 17.857502,-1.05531 c 0.09269,-0.14998 -0.01352,-0.19433 -0.248968,-0.10398 -0.458369,0.17589 -0.542234,0.36554 -0.16165,0.36554 0.136933,0 0.321712,-0.1177 0.410618,-0.26156 z m 4.102915,-1.06136 c 0,-0.14552 -0.119063,-0.26458 -0.264584,-0.26458 -0.145521,0 -0.264583,0.11906 -0.264583,0.26458 0,0.14552 0.119062,0.26458 0.264583,0.26458 0.145521,0 0.264584,-0.11906 0.264584,-0.26458 z M 8.3971898,33.495164 c 0.314208,-0.31421 0.263144,-0.38808 -0.349628,-0.5058 -0.880742,-0.1692 -1.025665,-0.0537 -0.59059,0.47048 0.410558,0.49469 0.478303,0.49724 0.940218,0.0353 z m 0.757431,-1.90488 c 0.200817,-0.52333 -0.01643,-0.90217 -0.517333,-0.90217 -0.412185,0 -0.472636,0.24776 -0.22066,0.9044 0.205751,0.53618 0.531762,0.53519 0.737993,-0.002 z m 26.3481142,-0.62704 c 0.671777,-1.3168 0.670275,-1.33346 -0.1203,-1.33346 -0.586494,0 -0.638273,0.0829 -0.496094,0.79375 0.178451,0.89225 -0.06282,1.02123 -0.618641,0.33073 -0.270002,-0.33543 -0.25794,-0.22607 0.04377,0.39687 0.229063,0.47294 0.470532,0.8599 0.536598,0.8599 0.06606,0 0.360665,-0.47151 0.654664,-1.04779 z m -1.918364,0.0942 c -0.08792,-0.0879 -0.316124,-0.0973 -0.507119,-0.0209 -0.211066,0.0845 -0.148373,0.14715 0.159854,0.15985 0.278913,0.0115 0.435184,-0.051 0.347265,-0.13897 z M 4.8231468,30.308864 c -0.134631,-0.3541 -0.388315,-0.91965 -0.563741,-1.25677 -0.175427,-0.33711 -0.401758,-0.79153 -0.502958,-1.00981 -0.192862,-0.41599 -1.586798,-0.7224 -1.584523,-0.34831 0.0019,0.31043 2.429776,3.25872 2.683522,3.25872 0.116866,0 0.102331,-0.28972 -0.0323,-0.64383 z m 1.051631,-0.14992 c 0,-0.14552 -0.18562,-0.26458 -0.41249,-0.26458 -0.226869,0 -0.338905,0.11906 -0.248968,0.26458 0.08994,0.14552 0.275557,0.26459 0.41249,0.26459 0.136933,0 0.248968,-0.11907 0.248968,-0.26459 z m 2.910417,-0.26458 c 0,-0.14552 -0.112036,-0.26458 -0.248968,-0.26458 -0.136933,0 -0.322553,0.11906 -0.41249,0.26458 -0.08994,0.14552 0.0221,0.26458 0.248968,0.26458 0.226869,0 0.41249,-0.11906 0.41249,-0.26458 z m -0.264583,-1.19062 c 0,-0.58966 -0.107706,-0.66043 -0.992188,-0.65195 l -0.992187,0.01 0.79375,0.65063 c 0.998507,0.81847 1.190625,0.81714 1.190625,-0.008 z m 27.1859372,0.21449 c -0.254661,-0.0666 -0.67138,-0.0666 -0.926041,0 -0.254662,0.0666 -0.0463,0.121 0.46302,0.121 0.509323,0 0.717683,-0.0545 0.463021,-0.121 z m -3.108854,-1.14054 c 0,-0.14552 -0.12609,-0.26458 -0.280199,-0.26458 -0.154109,0 -0.206613,0.11906 -0.116676,0.26458 0.08994,0.14553 0.216027,0.26459 0.280199,0.26459 0.06417,0 0.116676,-0.11906 0.116676,-0.26459 z M 7.5756118,26.520924 c 0.920299,-0.97097 1.203277,-1.65364 0.685457,-1.65364 -0.142748,0 -0.334722,0.29954 -0.426608,0.66564 -0.09189,0.3661 -0.451342,0.88926 -0.798791,1.16256 -0.577111,0.45395 -0.806667,0.81763 -0.516096,0.81763 0.06359,0 0.538813,-0.44648 1.056038,-0.99219 z m 1.471955,0.46999 c 0.298321,-0.1886 0.320095,-0.32408 0.0892,-0.55498 -0.362197,-0.36219 -0.880738,-0.10824 -0.880738,0.43134 0,0.44019 0.233227,0.47662 0.791538,0.12364 z m 26.7450092,-0.0815 c 0.594444,-0.45974 1.413325,-1.77752 1.104564,-1.77752 -0.386638,0 -1.617798,1.0262 -1.929175,1.60802 -0.320149,0.5982 0.146322,0.69408 0.824611,0.1695 z m -2.401131,-0.313 c 0,-0.0676 -0.267891,-0.2528 -0.595312,-0.41147 -0.571667,-0.27703 -0.574911,-0.27215 -0.08172,0.12298 0.539818,0.43248 0.677034,0.49095 0.677034,0.28849 z m 1.31354,-1.24131 c 0.0052,-0.0955 -0.228748,-0.1114 -0.51979,-0.0353 -0.568555,0.14868 -0.625726,0.31092 -0.356653,1.01211 0.149781,0.39032 0.218273,0.36702 0.51979,-0.1768 0.191003,-0.3445 0.351499,-0.70451 0.356653,-0.80002 z m -1.578123,0.30596 c 0,-0.14552 -0.12609,-0.26459 -0.280199,-0.26459 -0.15411,0 -0.206614,0.11907 -0.116676,0.26459 0.08994,0.14552 0.216027,0.26458 0.280199,0.26458 0.06417,0 0.116676,-0.11906 0.116676,-0.26458 z m -0.474218,-1.86224 c -0.06325,-0.43098 -0.156837,-0.7836 -0.207963,-0.7836 -0.253492,0 -0.619612,1.07011 -0.4856,1.41934 0.269279,0.70173 0.816271,0.20034 0.693563,-0.63574 z m -22.8934422,0.20859 c 1.0603852,-0.72188 1.1409172,-1.07902 0.159143,-0.70575 -0.84539,0.32142 -1.397733,0.74381 -1.397733,1.06888 0,0.36508 0.296698,0.27809 1.23859,-0.36313 z m 20.3249512,-0.19844 c -0.08994,-0.14552 -0.282583,-0.26458 -0.428103,-0.26458 -0.145521,0 -0.191001,0.11906 -0.101063,0.26458 0.08994,0.14553 0.282583,0.26459 0.428103,0.26459 0.145521,0 0.191,-0.11906 0.101063,-0.26459 z m 5.018429,-0.68598 c 1.077839,-0.59246 1.66266,-1.06593 1.552326,-1.25678 -0.09737,-0.1684 -0.774194,-1.06482 -1.504061,-1.99203 -1.200946,-1.52566 -1.34676,-1.6325 -1.534689,-1.12448 -0.134236,0.36287 -0.436906,0.56136 -0.856006,0.56136 -0.35659,0 -0.836676,0.0723 -1.066858,0.1606 -0.579144,0.22223 -0.528278,1.4799 0.08095,2.00153 0.466542,0.39947 0.518067,0.38683 0.781701,-0.19179 0.389776,-0.85546 1.481344,-1.52378 2.144847,-1.31319 1.30261,0.41343 0.679956,2.66238 -0.820187,2.96241 -0.507005,0.1014 -0.753742,0.31315 -0.753742,0.64684 0,0.27286 0.05543,0.4961 0.123184,0.4961 0.06775,0 0.901393,-0.42776 1.852535,-0.95057 z M 8.2813548,22.587834 c 0.306878,-0.36976 0.287446,-0.41436 -0.144116,-0.33073 -0.27435,0.0532 -0.548373,0.24549 -0.608938,0.42739 -0.157153,0.47199 0.333372,0.40903 0.753054,-0.0967 z m 2.2646222,-0.77464 c 0.08617,-0.22456 0.08531,-0.47965 -0.0019,-0.56687 -0.228775,-0.22878 -0.9871362,0.4609 -0.8143032,0.74055 0.22582,0.36538 0.6434562,0.27651 0.8162122,-0.17368 z m 18.52328,-0.006 c 0.27369,-0.71323 -0.286893,-0.92649 -0.613855,-0.23353 -0.249632,0.52907 -0.23595,0.64819 0.07445,0.64819 0.209155,0 0.451889,-0.1866 0.539405,-0.41466 z m -17.931587,-1.63051 0.954817,-0.32538 -1.182696,0.13937 c -1.0958682,0.12915 -1.5813652,0.4363 -1.5913782,1.0068 -0.0022,0.12696 0.191359,0.0674 0.430194,-0.13229 0.238835,-0.19972 0.8639132,-0.50954 1.3890632,-0.6885 z m 1.573971,-2.40798 c -0.682763,-0.11227 -0.763646,-0.0163 -0.57954,0.68774 l 0.150917,0.57711 0.48046,-0.58866 c 0.46701,-0.57219 0.465558,-0.59112 -0.05184,-0.67619 z m 2.158971,0.61669 c 0,-0.3638 -0.102552,-0.66146 -0.227893,-0.66146 -0.125342,0 -0.170993,0.29766 -0.101448,0.66146 0.06955,0.3638 0.172097,0.66146 0.227893,0.66146 0.0558,0 0.101448,-0.29766 0.101448,-0.66146 z m 16.404166,0.56488 c 0,-0.24653 -4.305278,-2.56381 -4.457427,-2.39918 -0.09503,0.10282 -0.05372,0.23057 0.0918,0.28387 0.145521,0.0533 1.03849,0.56858 1.984375,1.14506 1.513936,0.92268 2.38125,1.27607 2.38125,0.97025 z m -9.657291,-0.69717 c 0.08994,-0.14552 0.03743,-0.26459 -0.116677,-0.26459 -0.154109,0 -0.280198,0.11907 -0.280198,0.26459 0,0.14552 0.0525,0.26458 0.116676,0.26458 0.06417,0 0.190262,-0.11906 0.280199,-0.26458 z m -4.413369,-0.59531 c -0.0465,-0.32743 -0.203611,-0.59532 -0.349131,-0.59532 -0.145521,0 -0.30263,0.26789 -0.349132,0.59532 -0.05817,0.40962 0.05073,0.59531 0.349132,0.59531 0.298403,0 0.407306,-0.18569 0.349131,-0.59531 z m 10.366494,0.47233 c 0,-0.0676 -0.238125,-0.25043 -0.529167,-0.40619 -0.318892,-0.17066 -0.529167,-0.18207 -0.529167,-0.0287 0,0.13997 0.20836,0.30894 0.463021,0.37549 0.254662,0.0666 0.492787,0.13481 0.529167,0.1517 0.03638,0.0169 0.06615,-0.0247 0.06615,-0.0923 z M 9.8048028,16.401044 c -0.0013,-0.57023 -0.04869,-0.53373 -0.343446,0.26458 -0.188053,0.50933 -0.277519,1.03721 -0.198813,1.17307 0.190738,0.32925 0.544182,-0.6078 0.542259,-1.43765 z m 16.1783092,1.33853 c 0,-0.45838 -0.465693,-0.54319 -0.796169,-0.14499 -0.272089,0.32785 -0.232717,0.39396 0.234606,0.39396 0.308859,0 0.561563,-0.11203 0.561563,-0.24897 z m -4.497917,-0.56039 c 0,-0.13694 -0.119063,-0.24897 -0.264583,-0.24897 -0.145521,0 -0.264584,0.18562 -0.264584,0.41249 0,0.22687 0.119063,0.3389 0.264584,0.24897 0.14552,-0.0899 0.264583,-0.27556 0.264583,-0.41249 z m 10.489626,-0.11309 c 0.290536,-0.6265 0.220255,-0.70357 -1.687153,-1.85002 -2.12017,-1.27433 -2.327219,-1.34842 -2.588191,-0.92615 -0.09182,0.14857 0.288105,0.45156 0.84428,0.67332 1.70978,0.68171 2.232012,0.99977 2.517545,1.53329 0.260374,0.48652 0.234286,0.48453 -0.499647,-0.0381 -0.869993,-0.61949 -2.197293,-1.02937 -2.197293,-0.67854 0,0.20139 2.826882,1.92494 3.175,1.93579 0.07276,0.002 0.268716,-0.29005 0.435459,-0.64961 z m -12.014935,-0.98715 c -0.273248,-0.56718 -0.29205,-0.54837 -0.308867,0.30887 -0.01365,0.69579 0.05553,0.83938 0.29096,0.60395 0.228375,-0.22838 0.233042,-0.46626 0.01791,-0.91282 z m -5.944998,0.0566 c -0.861557,-1.37957 1.256536,-2.10569 2.670859,-0.91561 0.456884,0.38444 0.830698,0.58845 0.830698,0.45335 0,-0.1351 0.315769,-0.38951 0.701708,-0.56535 0.39193,-0.17858 0.596337,-0.4146 0.463021,-0.53464 -0.248403,-0.22368 -4.871656,-1.18395 -4.983642,-1.03514 -0.03508,0.0466 -0.274804,0.62055 -0.532717,1.27539 -0.257913,0.65485 -0.528138,1.33945 -0.6005,1.52136 -0.09065,0.22786 0.165969,0.33073 0.825023,0.33073 0.890909,0 0.933861,-0.0364 0.62555,-0.53009 z m -2.980735,-0.52825 c -0.225755,-0.43656 -0.550281,-0.79375 -0.721169,-0.79375 -0.234111,0 -0.232436,0.0783 0.0068,0.3175 0.174625,0.17463 0.3175,0.53181 0.3175,0.79375 0,0.26194 0.181652,0.47625 0.40367,0.47625 0.360327,0 0.359598,-0.0852 -0.0068,-0.79375 z m 10.596835,-0.12379 c 0.48595,-1.16305 0.508273,-2.28878 0.04184,-2.10979 -0.48771,0.18715 -0.940317,1.53535 -0.786161,2.34177 0.172313,0.90139 0.285511,0.86611 0.744325,-0.23198 z m 3.822957,0.40399 c 0,-0.35729 -0.48232,-0.60497 -0.798065,-0.40982 -0.147895,0.0914 -0.200401,0.27702 -0.116676,0.41249 0.198614,0.32136 0.914741,0.31928 0.914741,-0.003 z m -5.39882,-1.11245 c 0.500528,-0.56372 0.499997,-0.56555 -0.07655,-0.26316 -0.643132,0.33732 -1.039135,0.83083 -0.666671,0.83083 0.131556,0 0.466004,-0.25545 0.743219,-0.56767 z m 7.708413,0.40781 c -0.08792,-0.0879 -0.316124,-0.0973 -0.507119,-0.0209 -0.211066,0.0845 -0.148373,0.14716 0.159853,0.15986 0.278913,0.0115 0.435184,-0.0511 0.347266,-0.13897 z m -3.367926,-0.48599 c 0,-0.0642 -0.119063,-0.19026 -0.264584,-0.28019 -0.14552,-0.0899 -0.264583,-0.0374 -0.264583,0.11667 0,0.15411 0.119063,0.2802 0.264583,0.2802 0.145521,0 0.264584,-0.0525 0.264584,-0.11668 z m -0.802164,-1.56527 c -0.008,-0.78847 -0.02856,-0.80496 -0.396875,-0.318 -0.518726,0.68582 -0.51345,1.50214 0.0084,1.30188 0.239204,-0.0918 0.393533,-0.48267 0.388461,-0.98388 z m -3.65464,-2.18321 c 1.535194,-1.27507 1.528328,-1.26347 0.620345,-1.04798 -1.1328,0.26885 -2.87246,2.00272 -2.009408,2.00272 0.131753,0 0.756831,-0.42963 1.389063,-0.95474 z m 30.508814,26.28197 c 0.0085,-1.49456 0.108474,-1.7952 1.00149,-3.01182 0.545621,-0.74334 1.253252,-1.41984 1.572509,-1.50333 0.53559,-0.14006 0.525372,-0.1007 -0.132146,0.50898 -0.726433,0.67359 -0.814277,0.8968 -0.720207,1.82999 0.100497,0.99691 0.429168,0.92116 1.729015,-0.39853 0.907296,-0.92115 1.512327,-1.32127 1.997938,-1.32127 0.839406,0 1.650735,0.81068 1.418087,1.41695 -0.213127,0.5554 -1.77483,0.58496 -2.315959,0.0438 -0.345358,-0.34536 -0.619445,-0.13017 -2.334003,1.83242 -1.06848,1.22305 -2.006476,2.23258 -2.084433,2.24339 -0.07796,0.0108 -0.137488,-0.72746 -0.132291,-1.64061 z m 0.976331,-1.69693 c -0.211236,-0.37746 -0.266541,-0.35712 -0.430099,0.1582 -0.10323,0.32525 -0.101452,0.91019 0.0039,1.29987 l 0.191641,0.70851 0.238455,-0.86671 c 0.142952,-0.51958 0.14137,-1.04021 -0.0039,-1.29987 z m 52.280517,1.90441 c 1.30505,-0.56723 1.03577,-0.9296 -0.37523,-0.50495 -1.09767,0.33035 -1.28708,0.3247 -1.70195,-0.0507 -0.45574,-0.41244 -0.41854,-1.1665 0.0575,-1.1665 0.13138,0 0.4294,0.22252 0.66228,0.4945 0.38997,0.45546 0.51946,0.4656 1.63962,0.12848 0.66892,-0.20131 1.30769,-0.33454 1.41948,-0.29606 0.1118,0.0385 -0.10004,0.4569 -0.47076,0.92985 -0.46803,0.59708 -0.89055,0.85673 -1.38246,0.84954 -0.70003,-0.0102 -0.69824,-0.0148 0.15147,-0.38411 z m -18.690013,-2.87756 c -0.16506,-0.19889 -0.26893,-0.6231 -0.23083,-0.9427 0.0586,-0.49175 -0.20527,-0.68902 -1.71666,-1.28323 -0.98227,-0.38619 -1.78594,-0.77983 -1.78594,-0.87477 0,-0.19359 1.62049,-0.49908 2.67097,-0.50353 0.37763,-0.002 0.9021,0.23521 1.16549,0.52625 0.57551,0.63594 0.34916,0.68347 -0.52552,0.11035 -0.59804,-0.39185 -1.72344,-0.3218 -1.72344,0.10727 0,0.10007 0.71456,0.45903 1.58792,0.79768 1.18343,0.45889 1.62786,0.77485 1.7447,1.24039 0.26914,1.07234 -0.52339,1.62151 -1.18669,0.82229 z m -15.727868,-3.78354 c -0.346952,-0.34694 -0.16555,-0.91683 0.50539,-1.58778 l 0.68179,-0.68178 -1.19955,-2.48119 c -0.659758,-1.36466 -1.092651,-2.48119 -0.961989,-2.48119 0.130662,0 0.312552,0.12133 0.404199,0.26962 0.09165,0.14828 0.72986,0.55502 1.41825,0.90385 1.18506,0.60052 1.88593,1.50226 1.88593,2.42647 0,0.22002 -0.11906,0.32646 -0.26458,0.23652 -0.14552,-0.0899 -0.26458,-0.37617 -0.26458,-0.63607 0,-0.62785 -0.82583,-1.34831 -1.54552,-1.34831 -0.56041,0 -0.54983,0.0555 0.35157,1.84548 1.00742,2.00048 1.10019,2.53752 0.56105,3.24775 -0.34993,0.46098 -1.23604,0.62255 -1.57196,0.28663 z m 36.226351,-6.22172 c -0.53442,-0.763 -0.0932,-1.40205 0.68165,-0.98735 0.28398,0.15198 0.578,0.43703 0.65336,0.63344 0.1095,0.28534 0.51425,0.22881 2.0141,-0.28132 1.03239,-0.35114 1.93354,-0.58196 2.00256,-0.51294 0.14193,0.14194 0.11305,0.15384 -2.57628,1.06202 -2.37593,0.80235 -2.27592,0.79924 -2.77539,0.0862 z m -60.750476,-2.07462 c -0.998892,-0.99889 0.195763,-2.06662 1.947296,-1.74041 l 0.836893,0.15587 1.288407,-3.3018 c 0.708626,-1.81599 1.382057,-3.24392 1.496515,-3.17318 0.114459,0.0707 0.152112,0.34274 0.08367,0.60445 -0.06844,0.26171 0.06007,1.00573 0.285573,1.65338 0.225501,0.64765 0.411736,1.58021 0.413856,2.07236 0.0042,0.96613 -0.819322,2.53021 -1.461982,2.77682 -0.261832,0.10048 -0.170019,-0.18146 0.269936,-0.82891 0.744638,-1.09584 0.847458,-2.31692 0.260448,-3.09308 -0.502381,-0.66427 -0.639167,-0.49039 -1.727766,2.19631 -1.222481,3.01711 -2.457937,3.91311 -3.692851,2.67819 z m 75.960516,-0.36787 c -0.48066,-0.57916 -0.0732,-1.017 0.82384,-0.88533 0.69151,0.10149 0.91529,-0.061 1.9685,-1.42978 0.65357,-0.84936 1.24507,-1.54429 1.31444,-1.54429 0.4799,0 -2.79857,4.06749 -3.36664,4.17689 -0.22603,0.0435 -0.55909,-0.0993 -0.74014,-0.31749 z m -25.655503,-0.40962 c -0.65302,-0.1057 -1.31978,-0.40325 -1.52135,-0.67892 -0.54062,-0.73933 -0.43074,-0.99067 0.17032,-0.38961 0.29104,0.29105 0.84409,0.52917 1.229,0.52917 0.67567,0 0.65283,-0.0497 -0.66146,-1.43937 -0.74871,-0.79165 -1.35947,-1.65486 -1.35724,-1.91823 0.006,-0.74051 0.40615,-1.20203 0.95065,-1.09716 0.64685,0.12457 0.78849,0.93376 0.26475,1.51249 -0.38251,0.42266 -0.30276,0.56822 1.03514,1.8895 1.34596,1.32924 1.73581,1.89429 1.25114,1.8134 -0.10915,-0.0182 -0.72157,-0.11779 -1.36095,-0.22127 z m -15.10937,-3.71436 c 0.55111,-0.55111 0.66889,-1.22245 0.31283,-1.78309 -0.14732,-0.23196 -0.54927,0.0196 -1.37396,0.8599 -1.29217,1.31663 -1.7972,1.44706 -2.5182,0.65037 -0.45623,-0.50413 -0.45871,-0.56503 -0.0401,-0.98369 0.38484,-0.38484 0.56454,-0.40056 1.30523,-0.11417 0.85616,0.33105 0.8641,0.32649 2.44644,-1.40219 0.87313,-0.95388 1.65142,-1.73224 1.72954,-1.72968 0.0781,0.002 0.0746,0.71045 -0.008,1.57311 -0.14269,1.49246 -0.5101,2.22564 -1.56745,3.12788 -0.63004,0.53762 -0.86188,0.37701 -0.28644,-0.19844 z m 1.24072,-2.84427 c -0.0665,-0.25466 -0.121,-0.0463 -0.121,0.46302 0,0.50932 0.0545,0.71768 0.121,0.46302 0.0666,-0.25466 0.0666,-0.67138 0,-0.92604 z m -15.92509,-3.05952 c -1.361147,-0.49788 -1.5875,-0.67484 -1.5875,-1.24105 0,-0.89591 0.768493,-0.87749 0.873,0.0209 0.06493,0.55814 0.31147,0.75556 1.363877,1.0921 l 1.284626,0.41081 0.177324,-1.1825 c 0.09753,-0.65037 0.101838,-1.25798 0.0096,-1.35024 -0.09226,-0.0923 -0.845336,-0.41982 -1.673492,-0.72789 -1.276477,-0.47484 -1.51883,-0.67071 -1.591702,-1.28642 -0.06899,-0.58289 0.0094,-0.7082 0.396875,-0.63467 0.290245,0.0551 0.51453,0.36335 0.562298,0.77285 0.06652,0.57023 0.312915,0.75481 1.51234,1.13289 0.78808,0.24842 1.475176,0.53617 1.526876,0.63944 0.0517,0.10326 -0.01286,0.81283 -0.143457,1.57682 -0.275434,1.61121 -0.361993,1.63602 -2.710638,0.77693 z m 47.228123,-0.18163 c 0,-0.14552 0.46306,-0.26458 1.02903,-0.26458 1.1328,0 1.99936,-0.57998 2.2731,-1.52135 0.21914,-0.75357 0.11464,-0.7504 -2.78755,0.0845 -2.6098,0.75082 -3.2517,0.68732 -3.80159,-0.37605 -0.44321,-0.85708 -0.12795,-1.62672 0.66635,-1.62672 0.53624,0 1.65471,0.93859 1.86295,1.56333 0.0864,0.25918 0.85788,0.1105 3.16699,-0.61034 1.67903,-0.52415 3.16004,-0.95299 3.29113,-0.95299 0.1311,0 -0.13299,0.33918 -0.58687,0.75372 -0.45387,0.41455 -1.0182,1.12691 -1.25407,1.58303 -0.23586,0.45611 -0.7781,1.0099 -1.20497,1.23065 -0.87181,0.45082 -2.6545,0.54267 -2.6545,0.13677 z m -73.932141,-1.20952 c -0.475946,-0.47594 -0.556056,-1.98394 -0.12813,-2.41187 0.267039,-0.26704 -1.397928,-1.33451 -5.314727,-3.40747 l -0.926042,-0.49011 1.058333,-0.18884 c 3.103076,-0.55367 3.137038,-0.55282 4.630209,0.1155 0.800364,0.35824 1.682019,0.90337 1.959237,1.21141 0.63696,0.70779 0.318569,0.72523 -0.564124,0.0309 -0.820923,-0.64574 -1.259906,-0.64943 -2.440916,-0.0205 l -0.913511,0.48645 1.442678,0.72702 c 2.443366,1.2313 2.897886,1.64578 2.897886,2.64264 0,0.83284 -0.546079,1.72068 -1.058334,1.72068 -0.124732,0 -0.413885,-0.1871 -0.642559,-0.41578 z m -1.738691,-5.94284 0.661459,-0.18732 -0.73274,-0.19659 c -0.799621,-0.21453 -2.400583,0.29644 -2.1581,0.68879 0.135654,0.21949 0.603853,0.15546 2.229381,-0.30488 z"
       id="path1056"
       inkscape:connector-curvature="0"
       sodipodi:nodetypes="ccssscccccccscccscsccccccccccccscccsscccccsscccccccccccscccccccssccsccccccccsccccccssccccccscccccccccccsccscccscscccccsscccccccccccssccccsssccccccccscssscccccccsssccccccccccccccccccccscccscccccsccsscssccsscccccccccccccscsccccccccsscsscscccsccscscccsscssccscccccccscsccsccccccsccscssccscccccccscccsscccccccscccccccscscsssssccscssssscsccccsscccscccscccccccccccscsscsssscssscccsscsscsscsscscsscccsccscccccccccccccsscsscsscccsccscscccscscccccsscccscccccccccscccccccccccccsscsscccccccsssccscscccsccccccccscssssscscsccccsccccscccccscccccsccscssccccccccccccccscccccccscssscccccccsccsccccsscscccccccccccccsccccccccccscccscccccccsccscssccccccccccccccccccccccccccccscccccsccccsccccscccsccccccscccscccccccccccccccscccsccsccccccccccccccccssccccccc" />
  </g>
</svg>
